# Blender v2.79 (sub 0) OBJ File: ''
# www.blender.org
mtllib 90 deg turn.mtl
o 90_Deg_Turn_Rail_90_Deg_Turn_Rail.001
v 0.047406 0.000000 0.091067
v 0.048539 0.000000 0.098428
v -0.050000 0.000000 0.100000
v 0.049350 0.000000 0.105832
v 0.050000 0.000000 0.500000
v -0.050000 0.000000 0.500000
v 0.050000 0.000000 0.120711
v 0.049837 0.000000 0.113264
v 0.037005 0.000000 0.055382
v -0.052856 0.000000 0.083343
v 0.034006 0.000000 0.048565
v -0.053605 0.000000 0.081357
v 0.030712 0.000000 0.041885
v -0.054439 0.000000 0.079405
v 0.027129 0.000000 0.035355
v -0.055354 0.000000 0.077490
v 0.023265 0.000000 0.028988
v -0.056349 0.000000 0.075615
v 0.019127 0.000000 0.022795
v -0.050045 0.000000 0.097878
v -0.050180 0.000000 0.095760
v 0.045953 0.000000 0.083762
v -0.050405 0.000000 0.093649
v 0.044183 0.000000 0.076527
v -0.050719 0.000000 0.091550
v 0.042099 0.000000 0.069377
v -0.051122 0.000000 0.089466
v 0.039705 0.000000 0.062324
v -0.051613 0.000000 0.087401
v -0.052192 0.000000 0.085359
v -0.057423 0.000000 0.073785
v -0.058574 0.000000 0.072001
v 0.014723 0.000000 0.016789
v -0.059800 0.000000 0.070268
v 0.010061 0.000000 0.010980
v -0.061098 0.000000 0.068589
v 0.005150 0.000000 0.005380
v -0.062466 0.000000 0.066966
v -0.000000 0.000000 -0.000000
v -0.063902 0.000000 0.065403
v -0.065403 0.000000 0.063902
v -0.005380 0.000000 -0.005150
v -0.066966 0.000000 0.062466
v -0.010980 0.000000 -0.010061
v -0.068589 0.000000 0.061098
v -0.016789 0.000000 -0.014723
v -0.070268 0.000000 0.059800
v -0.022795 0.000000 -0.019127
v -0.072001 0.000000 0.058574
v -0.073785 0.000000 0.057423
v -0.028988 0.000000 -0.023265
v -0.075615 0.000000 0.056349
v -0.035355 0.000000 -0.027129
v -0.077490 0.000000 0.055354
v -0.041885 0.000000 -0.030712
v -0.079405 0.000000 0.054439
v -0.048565 0.000000 -0.034006
v -0.081357 0.000000 0.053605
v -0.055382 0.000000 -0.037005
v -0.083343 0.000000 0.052856
v -0.085359 0.000000 0.052192
v -0.062324 0.000000 -0.039705
v -0.087401 0.000000 0.051613
v -0.069377 0.000000 -0.042099
v -0.089466 0.000000 0.051122
v -0.076527 0.000000 -0.044183
v -0.091550 0.000000 0.050719
v -0.083762 0.000000 -0.045953
v -0.093649 0.000000 0.050405
v -0.091067 0.000000 -0.047406
v -0.500000 0.000000 0.050000
v -0.500000 0.000000 -0.050000
v -0.100000 0.000000 0.050000
v -0.120711 0.000000 -0.050000
v -0.113264 0.000000 -0.049837
v -0.095760 0.000000 0.050180
v -0.097878 0.000000 0.050045
v -0.098428 0.000000 -0.048539
v -0.105832 0.000000 -0.049350
v -0.050000 0.200000 0.500000
v 0.050000 0.200000 0.500000
v -0.050000 0.200000 0.100000
v 0.050000 0.200000 0.120711
v 0.049837 0.200000 0.113264
v 0.047406 0.200000 0.091067
v -0.050045 0.200000 0.097878
v 0.048539 0.200000 0.098428
v 0.049350 0.200000 0.105832
v 0.019127 0.200000 0.022795
v -0.057423 0.200000 0.073785
v 0.023265 0.200000 0.028988
v -0.056349 0.200000 0.075615
v 0.027129 0.200000 0.035355
v -0.055354 0.200000 0.077490
v 0.030712 0.200000 0.041885
v -0.054439 0.200000 0.079405
v 0.034006 0.200000 0.048565
v -0.053605 0.200000 0.081357
v 0.037005 0.200000 0.055382
v -0.055382 0.200000 -0.037005
v -0.083343 0.200000 0.052856
v -0.048565 0.200000 -0.034006
v -0.081357 0.200000 0.053605
v -0.041885 0.200000 -0.030712
v -0.079405 0.200000 0.054439
v -0.035355 0.200000 -0.027129
v -0.077490 0.200000 0.055354
v -0.028988 0.200000 -0.023265
v -0.075615 0.200000 0.056349
v -0.022795 0.200000 -0.019127
v -0.073785 0.200000 0.057423
v -0.072001 0.200000 0.058574
v -0.016789 0.200000 -0.014723
v -0.070268 0.200000 0.059800
v -0.010980 0.200000 -0.010061
v -0.068589 0.200000 0.061098
v -0.005380 0.200000 -0.005150
v -0.066966 0.200000 0.062466
v -0.000000 0.200000 -0.000000
v -0.091067 0.200000 -0.047406
v -0.098428 0.200000 -0.048539
v -0.100000 0.200000 0.050000
v -0.105832 0.200000 -0.049350
v -0.097878 0.200000 0.050045
v -0.095760 0.200000 0.050180
v -0.083762 0.200000 -0.045953
v -0.093649 0.200000 0.050405
v -0.076527 0.200000 -0.044183
v -0.091550 0.200000 0.050719
v -0.069377 0.200000 -0.042099
v -0.089466 0.200000 0.051122
v -0.062324 0.200000 -0.039705
v -0.087401 0.200000 0.051613
v -0.085359 0.200000 0.052192
v -0.065403 0.200000 0.063902
v -0.063902 0.200000 0.065403
v 0.005150 0.200000 0.005380
v -0.062466 0.200000 0.066966
v 0.010061 0.200000 0.010980
v -0.061098 0.200000 0.068589
v 0.014723 0.200000 0.016789
v -0.059800 0.200000 0.070268
v -0.058574 0.200000 0.072001
v -0.052856 0.200000 0.083343
v -0.052192 0.200000 0.085359
v 0.039705 0.200000 0.062324
v -0.051613 0.200000 0.087401
v 0.042099 0.200000 0.069377
v -0.051122 0.200000 0.089466
v 0.044183 0.200000 0.076527
v -0.050719 0.200000 0.091550
v 0.045953 0.200000 0.083762
v -0.050405 0.200000 0.093649
v -0.050180 0.200000 0.095760
v -0.500000 0.200000 -0.050000
v -0.500000 0.200000 0.050000
v -0.120711 0.200000 -0.050000
v -0.113264 0.200000 -0.049837
vn 0.0000 -1.0000 0.0000
vn 0.0000 1.0000 0.0000
vn 0.0000 0.0000 -1.0000
vn 0.9998 0.0000 -0.0218
vn 0.9979 0.0000 -0.0654
vn 0.9941 0.0000 -0.1089
vn 0.9884 0.0000 -0.1521
vn 0.9808 0.0000 -0.1951
vn 0.9713 0.0000 -0.2377
vn 0.9600 0.0000 -0.2798
vn 0.9469 0.0000 -0.3214
vn 0.9320 0.0000 -0.3624
vn 0.9153 0.0000 -0.4027
vn 0.8969 0.0000 -0.4423
vn 0.8767 0.0000 -0.4810
vn 0.8549 0.0000 -0.5188
vn 0.8315 0.0000 -0.5556
vn 0.8064 0.0000 -0.5913
vn 0.7799 0.0000 -0.6259
vn 0.7518 0.0000 -0.6593
vn 0.7224 0.0000 -0.6915
vn 0.6915 0.0000 -0.7224
vn 0.6593 0.0000 -0.7518
vn 0.6259 0.0000 -0.7799
vn 0.5913 0.0000 -0.8064
vn 0.5556 0.0000 -0.8315
vn 0.5188 0.0000 -0.8549
vn 0.4810 0.0000 -0.8767
vn 0.4423 0.0000 -0.8969
vn 0.4027 0.0000 -0.9153
vn 0.3624 0.0000 -0.9320
vn 0.3214 0.0000 -0.9469
vn 0.2798 0.0000 -0.9600
vn 0.2377 0.0000 -0.9713
vn 0.1951 0.0000 -0.9808
vn 0.1521 0.0000 -0.9884
vn 0.1089 0.0000 -0.9941
vn 0.0654 0.0000 -0.9979
vn 0.0218 0.0000 -0.9998
vn 0.0000 0.0000 1.0000
vn -1.0000 0.0000 0.0000
vn -0.0212 0.0000 0.9998
vn -0.0636 0.0000 0.9980
vn -0.1059 0.0000 0.9944
vn -0.1480 0.0000 0.9890
vn -0.1899 0.0000 0.9818
vn -0.2314 0.0000 0.9729
vn -0.2725 0.0000 0.9622
vn -0.3131 0.0000 0.9497
vn -0.3531 0.0000 0.9356
vn -0.3925 0.0000 0.9198
vn -0.4311 0.0000 0.9023
vn -0.4312 0.0000 0.9023
vn -0.4691 0.0000 0.8832
vn -0.5061 0.0000 0.8625
vn -0.5423 0.0000 0.8402
vn -0.5774 0.0000 0.8164
vn -0.6116 0.0000 0.7912
vn -0.6446 0.0000 0.7645
vn -0.6765 0.0000 0.7365
vn -0.7071 0.0000 0.7071
vn -0.7365 0.0000 0.6765
vn -0.7645 0.0000 0.6446
vn -0.7912 0.0000 0.6116
vn -0.8164 0.0000 0.5774
vn -0.8402 0.0000 0.5423
vn -0.8625 0.0000 0.5061
vn -0.8832 0.0000 0.4691
vn -0.9023 0.0000 0.4312
vn -0.9023 0.0000 0.4311
vn -0.9198 0.0000 0.3925
vn -0.9356 0.0000 0.3531
vn -0.9497 0.0000 0.3131
vn -0.9622 0.0000 0.2725
vn -0.9729 0.0000 0.2314
vn -0.9818 0.0000 0.1899
vn -0.9890 0.0000 0.1480
vn -0.9944 0.0000 0.1059
vn -0.9980 0.0000 0.0636
vn -0.9998 0.0000 0.0212
vn 1.0000 0.0000 0.0000
usemtl None
s off
f 1//1 2//1 3//1
f 2//1 4//1 3//1
f 5//1 6//1 7//1
f 6//1 3//1 7//1
f 7//1 3//1 8//1
f 3//1 4//1 8//1
f 9//1 10//1 11//1
f 10//1 12//1 11//1
f 11//1 12//1 13//1
f 12//1 14//1 13//1
f 13//1 14//1 15//1
f 14//1 16//1 15//1
f 15//1 16//1 17//1
f 16//1 18//1 17//1
f 17//1 18//1 19//1
f 3//1 20//1 1//1
f 20//1 21//1 1//1
f 1//1 21//1 22//1
f 21//1 23//1 22//1
f 22//1 23//1 24//1
f 23//1 25//1 24//1
f 24//1 25//1 26//1
f 25//1 27//1 26//1
f 26//1 27//1 28//1
f 27//1 29//1 28//1
f 28//1 29//1 9//1
f 29//1 30//1 9//1
f 9//1 30//1 10//1
f 18//1 31//1 19//1
f 31//1 32//1 19//1
f 19//1 32//1 33//1
f 32//1 34//1 33//1
f 33//1 34//1 35//1
f 34//1 36//1 35//1
f 35//1 36//1 37//1
f 36//1 38//1 37//1
f 37//1 38//1 39//1
f 38//1 40//1 39//1
f 40//1 41//1 39//1
f 39//1 41//1 42//1
f 41//1 43//1 42//1
f 42//1 43//1 44//1
f 43//1 45//1 44//1
f 44//1 45//1 46//1
f 45//1 47//1 46//1
f 46//1 47//1 48//1
f 47//1 49//1 48//1
f 49//1 50//1 48//1
f 48//1 50//1 51//1
f 50//1 52//1 51//1
f 51//1 52//1 53//1
f 52//1 54//1 53//1
f 53//1 54//1 55//1
f 54//1 56//1 55//1
f 55//1 56//1 57//1
f 56//1 58//1 57//1
f 57//1 58//1 59//1
f 58//1 60//1 59//1
f 60//1 61//1 59//1
f 59//1 61//1 62//1
f 61//1 63//1 62//1
f 62//1 63//1 64//1
f 63//1 65//1 64//1
f 64//1 65//1 66//1
f 65//1 67//1 66//1
f 66//1 67//1 68//1
f 67//1 69//1 68//1
f 68//1 69//1 70//1
f 71//1 72//1 73//1
f 72//1 74//1 73//1
f 73//1 74//1 75//1
f 69//1 76//1 70//1
f 76//1 77//1 70//1
f 70//1 77//1 78//1
f 77//1 73//1 78//1
f 78//1 73//1 79//1
f 73//1 75//1 79//1
f 80//2 81//2 82//2
f 81//2 83//2 82//2
f 82//2 83//2 84//2
f 85//2 86//2 87//2
f 86//2 82//2 87//2
f 87//2 82//2 88//2
f 82//2 84//2 88//2
f 89//2 90//2 91//2
f 90//2 92//2 91//2
f 91//2 92//2 93//2
f 92//2 94//2 93//2
f 93//2 94//2 95//2
f 94//2 96//2 95//2
f 95//2 96//2 97//2
f 96//2 98//2 97//2
f 97//2 98//2 99//2
f 100//2 101//2 102//2
f 101//2 103//2 102//2
f 102//2 103//2 104//2
f 103//2 105//2 104//2
f 104//2 105//2 106//2
f 105//2 107//2 106//2
f 106//2 107//2 108//2
f 107//2 109//2 108//2
f 108//2 109//2 110//2
f 109//2 111//2 110//2
f 111//2 112//2 110//2
f 110//2 112//2 113//2
f 112//2 114//2 113//2
f 113//2 114//2 115//2
f 114//2 116//2 115//2
f 115//2 116//2 117//2
f 116//2 118//2 117//2
f 117//2 118//2 119//2
f 120//2 121//2 122//2
f 121//2 123//2 122//2
f 122//2 124//2 120//2
f 124//2 125//2 120//2
f 120//2 125//2 126//2
f 125//2 127//2 126//2
f 126//2 127//2 128//2
f 127//2 129//2 128//2
f 128//2 129//2 130//2
f 129//2 131//2 130//2
f 130//2 131//2 132//2
f 131//2 133//2 132//2
f 132//2 133//2 100//2
f 133//2 134//2 100//2
f 100//2 134//2 101//2
f 118//2 135//2 119//2
f 135//2 136//2 119//2
f 119//2 136//2 137//2
f 136//2 138//2 137//2
f 137//2 138//2 139//2
f 138//2 140//2 139//2
f 139//2 140//2 141//2
f 140//2 142//2 141//2
f 141//2 142//2 89//2
f 142//2 143//2 89//2
f 89//2 143//2 90//2
f 98//2 144//2 99//2
f 144//2 145//2 99//2
f 99//2 145//2 146//2
f 145//2 147//2 146//2
f 146//2 147//2 148//2
f 147//2 149//2 148//2
f 148//2 149//2 150//2
f 149//2 151//2 150//2
f 150//2 151//2 152//2
f 151//2 153//2 152//2
f 152//2 153//2 85//2
f 153//2 154//2 85//2
f 85//2 154//2 86//2
f 155//2 156//2 157//2
f 156//2 122//2 157//2
f 157//2 122//2 158//2
f 122//2 123//2 158//2
f 155//3 157//3 72//3
f 157//3 74//3 72//3
f 83//4 7//4 8//4
f 83//4 8//4 84//4
f 8//5 4//5 84//5
f 84//5 4//5 88//5
f 4//6 2//6 88//6
f 88//6 2//6 87//6
f 2//7 1//7 87//7
f 87//7 1//7 85//7
f 1//8 22//8 85//8
f 85//8 22//8 152//8
f 22//9 24//9 152//9
f 152//9 24//9 150//9
f 24//10 26//10 150//10
f 150//10 26//10 148//10
f 26//11 28//11 148//11
f 148//11 28//11 146//11
f 28//12 9//12 146//12
f 146//12 9//12 99//12
f 9//13 11//13 99//13
f 99//13 11//13 97//13
f 11//14 13//14 97//14
f 97//14 13//14 95//14
f 13//15 15//15 95//15
f 95//15 15//15 93//15
f 15//16 17//16 93//16
f 93//16 17//16 91//16
f 17//17 19//17 91//17
f 91//17 19//17 89//17
f 19//18 33//18 89//18
f 89//18 33//18 141//18
f 33//19 35//19 141//19
f 141//19 35//19 139//19
f 35//20 37//20 139//20
f 139//20 37//20 137//20
f 37//21 39//21 137//21
f 137//21 39//21 119//21
f 39//22 42//22 119//22
f 119//22 42//22 117//22
f 42//23 44//23 117//23
f 117//23 44//23 115//23
f 44//24 46//24 115//24
f 115//24 46//24 113//24
f 46//25 48//25 113//25
f 113//25 48//25 110//25
f 48//26 51//26 110//26
f 110//26 51//26 108//26
f 51//27 53//27 108//27
f 108//27 53//27 106//27
f 53//28 55//28 106//28
f 106//28 55//28 104//28
f 55//29 57//29 104//29
f 104//29 57//29 102//29
f 57//30 59//30 102//30
f 102//30 59//30 100//30
f 59//31 62//31 100//31
f 100//31 62//31 132//31
f 62//32 64//32 132//32
f 132//32 64//32 130//32
f 64//33 66//33 130//33
f 130//33 66//33 128//33
f 66//34 68//34 128//34
f 128//34 68//34 126//34
f 68//35 70//35 126//35
f 126//35 70//35 120//35
f 70//36 78//36 120//36
f 120//36 78//36 121//36
f 78//37 79//37 121//37
f 121//37 79//37 123//37
f 79//38 75//38 123//38
f 123//38 75//38 158//38
f 75//39 74//39 158//39
f 158//39 74//39 157//39
f 122//40 156//40 73//40
f 156//40 71//40 73//40
f 156//41 155//41 71//41
f 155//41 72//41 71//41
f 122//42 73//42 124//42
f 73//42 77//42 124//42
f 124//43 77//43 125//43
f 77//43 76//43 125//43
f 125//44 76//44 127//44
f 76//44 69//44 127//44
f 127//45 69//45 129//45
f 69//45 67//45 129//45
f 129//46 67//46 131//46
f 67//46 65//46 131//46
f 131//47 65//47 133//47
f 65//47 63//47 133//47
f 133//48 63//48 134//48
f 63//48 61//48 134//48
f 134//49 61//49 101//49
f 61//49 60//49 101//49
f 101//50 60//50 103//50
f 60//50 58//50 103//50
f 103//51 58//51 105//51
f 58//51 56//51 105//51
f 105//52 56//52 107//52
f 56//53 54//53 107//53
f 107//54 54//54 109//54
f 54//54 52//54 109//54
f 109//55 52//55 111//55
f 52//55 50//55 111//55
f 111//56 50//56 112//56
f 50//56 49//56 112//56
f 112//57 49//57 114//57
f 49//57 47//57 114//57
f 114//58 47//58 116//58
f 47//58 45//58 116//58
f 116//59 45//59 118//59
f 45//59 43//59 118//59
f 118//60 43//60 135//60
f 43//60 41//60 135//60
f 135//61 41//61 136//61
f 41//61 40//61 136//61
f 136//62 40//62 138//62
f 40//62 38//62 138//62
f 138//63 38//63 140//63
f 38//63 36//63 140//63
f 140//64 36//64 142//64
f 36//64 34//64 142//64
f 142//65 34//65 143//65
f 34//65 32//65 143//65
f 143//66 32//66 90//66
f 32//66 31//66 90//66
f 90//67 31//67 92//67
f 31//67 18//67 92//67
f 92//68 18//68 94//68
f 18//68 16//68 94//68
f 94//69 16//69 96//69
f 16//70 14//70 96//70
f 96//71 14//71 98//71
f 14//71 12//71 98//71
f 98//72 12//72 144//72
f 12//72 10//72 144//72
f 144//73 10//73 145//73
f 10//73 30//73 145//73
f 145//74 30//74 147//74
f 30//74 29//74 147//74
f 147//75 29//75 149//75
f 29//75 27//75 149//75
f 149//76 27//76 151//76
f 27//76 25//76 151//76
f 151//77 25//77 153//77
f 25//77 23//77 153//77
f 153//78 23//78 154//78
f 23//78 21//78 154//78
f 154//79 21//79 86//79
f 21//79 20//79 86//79
f 86//80 20//80 82//80
f 20//80 3//80 82//80
f 80//41 82//41 6//41
f 82//41 3//41 6//41
f 81//40 80//40 5//40
f 80//40 6//40 5//40
f 83//81 81//81 7//81
f 81//81 5//81 7//81
