# Blender v2.79 (sub 0) OBJ File: ''
# www.blender.org
mtllib Curved Bank.mtl
o Curved_Bank
v -0.500000 -0.499999 -0.500000
v -0.500000 -0.500000 0.499999
v -0.500000 -0.499684 0.484721
v -0.500000 -0.498750 0.469793
v -0.500000 -0.497239 0.455408
v -0.500000 -0.495184 0.441481
v -0.500000 -0.492604 0.427937
v -0.500000 -0.489510 0.414707
v -0.500000 -0.485902 0.401729
v -0.500000 -0.481774 0.388945
v -0.500000 -0.477110 0.376299
v -0.500000 -0.471885 0.363740
v -0.500000 -0.466067 0.351215
v -0.500000 -0.459611 0.338673
v -0.500000 -0.452462 0.326062
v -0.500000 -0.207904 0.109734
v -0.500000 -0.141037 0.072243
v -0.500000 -0.444552 0.313328
v -0.500000 -0.435796 0.300412
v -0.500000 -0.426091 0.287252
v -0.500000 -0.050503 0.025328
v -0.500000 0.053292 -0.026736
v -0.500000 0.134877 -0.068942
v -0.500000 -0.336302 0.197004
v -0.500000 -0.313551 0.179262
v -0.500000 -0.415309 0.273779
v -0.500000 -0.403290 0.259914
v -0.500000 -0.389838 0.245565
v -0.500000 -0.286850 0.159975
v -0.500000 -0.255088 0.138732
v -0.500000 -0.374701 0.230621
v -0.500000 -0.357557 0.214948
v -0.500000 0.197812 -0.103845
v -0.500000 0.244056 -0.131709
v -0.500000 0.279991 -0.155246
v -0.500000 0.309243 -0.176047
v -0.500000 0.333650 -0.194864
v -0.500000 0.353613 -0.211504
v -0.500000 0.371630 -0.227723
v -0.500000 0.387342 -0.243021
v -0.500000 0.401172 -0.257579
v -0.500000 0.497689 -0.459133
v -0.500000 0.499028 -0.473324
v -0.500000 0.499803 -0.487931
v -0.500000 0.500000 -0.499999
v -0.500000 0.413431 -0.271539
v -0.500000 0.424360 -0.285014
v -0.500000 0.434146 -0.298095
v -0.500000 0.490427 -0.418379
v -0.500000 0.493385 -0.431725
v -0.500000 0.495805 -0.445288
v -0.500000 0.478181 -0.379067
v -0.500000 0.482850 -0.392109
v -0.500000 0.486922 -0.405194
v -0.500000 0.460101 -0.339583
v -0.500000 0.466871 -0.352869
v -0.500000 0.472873 -0.366008
v -0.500000 0.443860 -0.312265
v -0.500000 0.452471 -0.326076
v 0.500000 -0.497239 0.455408
v 0.500000 -0.498750 0.469793
v 0.500000 -0.499999 -0.500000
v 0.500000 -0.499684 0.484721
v 0.500000 -0.500000 0.499999
v 0.500000 -0.489510 0.414707
v 0.500000 -0.492604 0.427937
v 0.500000 -0.495184 0.441481
v 0.500000 -0.477110 0.376299
v 0.500000 -0.481774 0.388945
v 0.500000 -0.485902 0.401729
v 0.500000 -0.459611 0.338673
v 0.500000 -0.466067 0.351215
v 0.500000 -0.471885 0.363740
v 0.500000 -0.435796 0.300412
v 0.500000 -0.444552 0.313328
v 0.500000 -0.452462 0.326062
v 0.500000 0.053292 -0.026736
v 0.500000 -0.050503 0.025328
v 0.500000 -0.336302 0.197004
v 0.500000 -0.357557 0.214948
v 0.500000 0.244056 -0.131709
v 0.500000 0.197812 -0.103845
v 0.500000 0.134877 -0.068942
v 0.500000 -0.141037 0.072243
v 0.500000 -0.207904 0.109734
v 0.500000 -0.255088 0.138732
v 0.500000 -0.403290 0.259914
v 0.500000 -0.415309 0.273779
v 0.500000 -0.426091 0.287252
v 0.500000 0.500000 -0.499999
v 0.500000 0.499803 -0.487931
v 0.500000 -0.286850 0.159975
v 0.500000 -0.313551 0.179262
v 0.500000 -0.374701 0.230621
v 0.500000 -0.389838 0.245565
v 0.500000 0.387342 -0.243021
v 0.500000 0.371630 -0.227723
v 0.500000 0.353613 -0.211504
v 0.500000 0.333650 -0.194864
v 0.500000 0.309243 -0.176047
v 0.500000 0.279991 -0.155246
v 0.500000 0.424360 -0.285014
v 0.500000 0.413431 -0.271539
v 0.500000 0.401172 -0.257579
v 0.500000 0.499028 -0.473324
v 0.500000 0.497689 -0.459133
v 0.500000 0.495805 -0.445288
v 0.500000 0.493385 -0.431725
v 0.500000 0.490427 -0.418379
v 0.500000 0.486922 -0.405194
v 0.500000 0.482850 -0.392109
v 0.500000 0.478181 -0.379067
v 0.500000 0.472873 -0.366008
v 0.500000 0.466871 -0.352869
v 0.500000 0.460101 -0.339583
v 0.500000 0.452471 -0.326076
v 0.500000 0.443860 -0.312265
v 0.500000 0.434146 -0.298095
vn -1.0000 -0.0000 0.0000
vn 1.0000 -0.0000 0.0000
vn 0.0000 0.0000 -1.0000
vn 0.0000 0.9999 0.0163
vn 0.0000 0.9986 0.0530
vn 0.0000 0.9956 0.0939
vn 0.0000 0.9909 0.1348
vn 0.0000 0.9844 0.1757
vn 0.0000 0.9763 0.2164
vn 0.0000 0.9664 0.2569
vn 0.0000 0.9548 0.2971
vn 0.0000 0.9415 0.3370
vn 0.0000 0.9264 0.3765
vn 0.0000 0.9096 0.4155
vn 0.0000 0.8910 0.4540
vn 0.0000 0.8707 0.4919
vn 0.0000 0.8486 0.5290
vn 0.0000 0.8486 0.5291
vn 0.0000 0.8248 0.5654
vn 0.0000 0.8007 0.5990
vn 0.0000 0.7767 0.6299
vn 0.0000 0.7514 0.6598
vn 0.0000 0.7250 0.6887
vn 0.0000 0.6976 0.7165
vn 0.0000 0.6691 0.7432
vn 0.0000 0.6403 0.7682
vn 0.0000 0.6106 0.7920
vn 0.0000 0.5795 0.8150
vn 0.0000 0.5479 0.8365
vn 0.0000 0.5161 0.8565
vn 0.0000 0.4850 0.8745
vn 0.0000 0.4595 0.8882
vn -0.0000 0.4484 0.8938
vn 0.0000 0.4601 0.8879
vn 0.0000 0.4891 0.8723
vn 0.0000 0.5236 0.8520
vn 0.0000 0.5559 0.8312
vn 0.0000 0.5855 0.8106
vn 0.0000 0.6149 0.7886
vn 0.0000 0.6451 0.7641
vn 0.0000 0.6748 0.7380
vn 0.0000 0.7025 0.7116
vn 0.0000 0.7295 0.6839
vn 0.0000 0.7556 0.6550
vn 0.0000 0.7807 0.6248
vn 0.0000 0.8048 0.5935
vn 0.0000 0.8277 0.5611
vn 0.0000 0.8495 0.5276
vn 0.0000 0.8699 0.4931
vn 0.0000 0.8891 0.4577
vn 0.0000 0.9069 0.4213
vn 0.0000 0.9233 0.3841
vn 0.0000 0.9382 0.3461
vn 0.0000 0.9516 0.3073
vn 0.0000 0.9635 0.2678
vn 0.0000 0.9737 0.2278
vn 0.0000 0.9823 0.1871
vn 0.0000 0.9893 0.1460
vn 0.0000 0.9945 0.1044
vn 0.0000 0.9980 0.0625
vn 0.0000 0.9998 0.0206
vn 0.0000 -1.0000 -0.0000
usemtl None.004
s 1
f 1//1 2//1 3//1
f 3//1 4//1 1//1
f 4//1 5//1 1//1
f 1//1 5//1 6//1
f 6//1 7//1 1//1
f 7//1 8//1 1//1
f 1//1 8//1 9//1
f 9//1 10//1 1//1
f 10//1 11//1 1//1
f 1//1 11//1 12//1
f 12//1 13//1 1//1
f 13//1 14//1 1//1
f 1//1 14//1 15//1
f 1//1 16//1 17//1
f 15//1 18//1 1//1
f 18//1 19//1 1//1
f 1//1 19//1 20//1
f 17//1 21//1 1//1
f 21//1 22//1 1//1
f 1//1 22//1 23//1
f 1//1 24//1 25//1
f 20//1 26//1 1//1
f 26//1 27//1 1//1
f 1//1 27//1 28//1
f 25//1 29//1 1//1
f 29//1 30//1 1//1
f 1//1 30//1 16//1
f 28//1 31//1 1//1
f 31//1 32//1 1//1
f 1//1 32//1 24//1
f 23//1 33//1 1//1
f 33//1 34//1 1//1
f 1//1 34//1 35//1
f 35//1 36//1 1//1
f 36//1 37//1 1//1
f 1//1 37//1 38//1
f 38//1 39//1 1//1
f 39//1 40//1 1//1
f 1//1 40//1 41//1
f 42//1 43//1 1//1
f 43//1 44//1 1//1
f 1//1 44//1 45//1
f 41//1 46//1 1//1
f 46//1 47//1 1//1
f 1//1 47//1 48//1
f 49//1 50//1 1//1
f 50//1 51//1 1//1
f 1//1 51//1 42//1
f 52//1 53//1 1//1
f 53//1 54//1 1//1
f 1//1 54//1 49//1
f 55//1 56//1 1//1
f 56//1 57//1 1//1
f 1//1 57//1 52//1
f 48//1 58//1 1//1
f 58//1 59//1 1//1
f 1//1 59//1 55//1
f 60//2 61//2 62//2
f 61//2 63//2 62//2
f 62//2 63//2 64//2
f 65//2 66//2 62//2
f 66//2 67//2 62//2
f 62//2 67//2 60//2
f 68//2 69//2 62//2
f 69//2 70//2 62//2
f 62//2 70//2 65//2
f 71//2 72//2 62//2
f 72//2 73//2 62//2
f 62//2 73//2 68//2
f 74//2 75//2 62//2
f 75//2 76//2 62//2
f 62//2 76//2 71//2
f 77//2 78//2 62//2
f 79//2 80//2 62//2
f 81//2 82//2 62//2
f 82//2 83//2 62//2
f 62//2 83//2 77//2
f 78//2 84//2 62//2
f 84//2 85//2 62//2
f 62//2 85//2 86//2
f 87//2 88//2 62//2
f 88//2 89//2 62//2
f 62//2 89//2 74//2
f 62//2 90//2 91//2
f 86//2 92//2 62//2
f 92//2 93//2 62//2
f 62//2 93//2 79//2
f 80//2 94//2 62//2
f 94//2 95//2 62//2
f 62//2 95//2 87//2
f 96//2 97//2 62//2
f 97//2 98//2 62//2
f 62//2 98//2 99//2
f 99//2 100//2 62//2
f 100//2 101//2 62//2
f 62//2 101//2 81//2
f 102//2 103//2 62//2
f 103//2 104//2 62//2
f 62//2 104//2 96//2
f 91//2 105//2 62//2
f 105//2 106//2 62//2
f 62//2 106//2 107//2
f 107//2 108//2 62//2
f 108//2 109//2 62//2
f 62//2 109//2 110//2
f 110//2 111//2 62//2
f 111//2 112//2 62//2
f 62//2 112//2 113//2
f 113//2 114//2 62//2
f 114//2 115//2 62//2
f 62//2 115//2 116//2
f 116//2 117//2 62//2
f 117//2 118//2 62//2
f 62//2 118//2 102//2
f 90//3 62//3 45//3
f 62//3 1//3 45//3
f 90//4 45//4 44//4
f 90//4 44//4 91//4
f 44//5 43//5 91//5
f 91//5 43//5 105//5
f 43//6 42//6 105//6
f 105//6 42//6 106//6
f 42//7 51//7 106//7
f 106//7 51//7 107//7
f 51//8 50//8 107//8
f 107//8 50//8 108//8
f 50//9 49//9 108//9
f 108//9 49//9 109//9
f 49//10 54//10 109//10
f 109//10 54//10 110//10
f 54//11 53//11 110//11
f 110//11 53//11 111//11
f 53//12 52//12 111//12
f 111//12 52//12 112//12
f 52//13 57//13 112//13
f 112//13 57//13 113//13
f 57//14 56//14 113//14
f 113//14 56//14 114//14
f 56//15 55//15 114//15
f 114//15 55//15 115//15
f 55//16 59//16 115//16
f 115//16 59//16 116//16
f 59//17 58//17 116//18
f 116//18 58//17 117//18
f 58//19 48//19 117//19
f 117//19 48//19 118//19
f 48//20 47//20 118//20
f 118//20 47//20 102//20
f 47//21 46//21 102//21
f 102//21 46//21 103//21
f 46//22 41//22 103//22
f 103//22 41//22 104//22
f 41//23 40//23 104//23
f 104//23 40//23 96//23
f 40//24 39//24 96//24
f 96//24 39//24 97//24
f 39//25 38//25 97//25
f 97//25 38//25 98//25
f 38//26 37//26 98//26
f 98//26 37//26 99//26
f 37//27 36//27 99//27
f 99//27 36//27 100//27
f 36//28 35//28 100//28
f 100//28 35//28 101//28
f 35//29 34//29 101//29
f 101//29 34//29 81//29
f 34//30 33//30 81//30
f 81//30 33//30 82//30
f 33//31 23//31 82//31
f 82//31 23//31 83//31
f 23//32 22//32 83//32
f 83//32 22//32 77//33
f 22//32 21//33 77//33
f 77//33 21//33 78//34
f 21//33 17//34 78//34
f 78//34 17//34 84//34
f 17//35 16//35 84//35
f 84//35 16//35 85//35
f 16//36 30//36 85//36
f 85//36 30//36 86//36
f 30//37 29//37 86//37
f 86//37 29//37 92//37
f 29//38 25//38 92//38
f 92//38 25//38 93//38
f 25//39 24//39 93//39
f 93//39 24//39 79//39
f 24//40 32//40 79//40
f 79//40 32//40 80//40
f 32//41 31//41 80//41
f 80//41 31//41 94//41
f 31//42 28//42 94//42
f 94//42 28//42 95//42
f 28//43 27//43 95//43
f 95//43 27//43 87//43
f 27//44 26//44 87//44
f 87//44 26//44 88//44
f 26//45 20//45 88//45
f 88//45 20//45 89//45
f 20//46 19//46 89//46
f 89//46 19//46 74//46
f 19//47 18//47 74//47
f 74//47 18//47 75//47
f 18//48 15//48 75//48
f 75//48 15//48 76//48
f 15//49 14//49 76//49
f 76//49 14//49 71//49
f 14//50 13//50 71//50
f 71//50 13//50 72//50
f 13//51 12//51 72//51
f 72//51 12//51 73//51
f 12//52 11//52 73//52
f 73//52 11//52 68//52
f 11//53 10//53 68//53
f 68//53 10//53 69//53
f 10//54 9//54 69//54
f 69//54 9//54 70//54
f 9//55 8//55 70//55
f 70//55 8//55 65//55
f 8//56 7//56 65//56
f 65//56 7//56 66//56
f 7//57 6//57 66//57
f 66//57 6//57 67//57
f 6//58 5//58 67//58
f 67//58 5//58 60//58
f 5//59 4//59 60//59
f 60//59 4//59 61//59
f 4//60 3//60 61//60
f 61//60 3//60 63//60
f 3//61 2//61 63//61
f 63//61 2//61 64//61
f 62//62 64//62 1//62
f 64//62 2//62 1//62
