# Blender v2.79 (sub 0) OBJ File: ''
# www.blender.org
mtllib Quarter Pipe.mtl
o Quarter_Pipe
v -0.500000 0.456380 -0.499048
v -0.500000 0.500000 -0.499999
v -0.500000 -0.499999 -0.500000
v -0.500000 -0.423879 0.117316
v -0.500000 -0.406307 0.077382
v -0.500000 -0.343391 -0.037300
v -0.500000 -0.319152 -0.073576
v -0.500000 0.117317 -0.423879
v -0.500000 0.157980 -0.439692
v -0.500000 0.199294 -0.453717
v -0.500000 -0.387010 0.038251
v -0.500000 -0.366025 -0.000000
v -0.500000 -0.293353 -0.108761
v -0.500000 -0.266044 -0.142788
v -0.500000 -0.237277 -0.175590
v -0.500000 -0.500000 0.499999
v -0.500000 -0.499048 0.456380
v -0.500000 -0.496194 0.412844
v -0.500000 -0.491444 0.369473
v -0.500000 0.241181 -0.465925
v -0.500000 0.283560 -0.476296
v -0.500000 0.326352 -0.484807
v -0.500000 0.369474 -0.491444
v -0.500000 0.412844 -0.496194
v -0.500000 -0.484807 0.326351
v -0.500000 -0.476296 0.283560
v -0.500000 -0.465925 0.241181
v -0.500000 -0.207107 -0.207107
v -0.500000 -0.175590 -0.237277
v -0.500000 -0.142787 -0.266044
v -0.500000 -0.037300 -0.343391
v -0.500000 0.000000 -0.366025
v -0.500000 -0.453717 0.199294
v -0.500000 -0.439692 0.157980
v -0.500000 -0.108761 -0.293353
v -0.500000 -0.073576 -0.319152
v -0.500000 0.038251 -0.387010
v -0.500000 0.077382 -0.406307
v 0.500000 -0.343391 -0.037300
v 0.500000 -0.366025 -0.000000
v 0.500000 -0.499999 -0.500000
v 0.500000 -0.319152 -0.073576
v 0.500000 0.500000 -0.499999
v 0.500000 0.456380 -0.499048
v 0.500000 0.412844 -0.496194
v 0.500000 0.369474 -0.491444
v 0.500000 0.326352 -0.484807
v 0.500000 0.283560 -0.476296
v 0.500000 0.241181 -0.465925
v 0.500000 0.199294 -0.453717
v 0.500000 -0.387010 0.038251
v 0.500000 -0.406307 0.077382
v 0.500000 -0.423879 0.117316
v 0.500000 -0.237277 -0.175590
v 0.500000 -0.207107 -0.207107
v 0.500000 -0.175590 -0.237277
v 0.500000 -0.266044 -0.142788
v 0.500000 -0.293353 -0.108761
v 0.500000 -0.491444 0.369473
v 0.500000 -0.496194 0.412844
v 0.500000 -0.499048 0.456380
v 0.500000 -0.500000 0.499999
v 0.500000 0.157980 -0.439692
v 0.500000 0.117317 -0.423879
v 0.500000 0.077382 -0.406307
v 0.500000 -0.037300 -0.343391
v 0.500000 -0.073576 -0.319152
v 0.500000 -0.439692 0.157980
v 0.500000 -0.453717 0.199294
v 0.500000 -0.465925 0.241181
v 0.500000 -0.476296 0.283560
v 0.500000 -0.484807 0.326351
v 0.500000 0.038251 -0.387010
v 0.500000 0.000000 -0.366025
v 0.500000 -0.108761 -0.293353
v 0.500000 -0.142787 -0.266044
vn -1.0000 0.0000 0.0000
vn 1.0000 0.0000 0.0000
vn 0.0000 0.0000 -1.0000
vn 0.0000 0.0218 0.9998
vn 0.0000 0.0654 0.9979
vn 0.0000 0.1089 0.9941
vn 0.0000 0.1521 0.9884
vn 0.0000 0.1951 0.9808
vn 0.0000 0.2377 0.9713
vn 0.0000 0.2798 0.9600
vn 0.0000 0.3214 0.9469
vn 0.0000 0.3624 0.9320
vn 0.0000 0.4027 0.9153
vn 0.0000 0.4423 0.8969
vn 0.0000 0.4810 0.8767
vn 0.0000 0.5188 0.8549
vn 0.0000 0.5556 0.8315
vn 0.0000 0.5913 0.8064
vn 0.0000 0.6259 0.7799
vn 0.0000 0.6593 0.7518
vn 0.0000 0.6915 0.7224
vn 0.0000 0.7224 0.6915
vn 0.0000 0.7518 0.6593
vn 0.0000 0.7799 0.6259
vn 0.0000 0.8064 0.5913
vn 0.0000 0.8315 0.5556
vn 0.0000 0.8549 0.5188
vn 0.0000 0.8767 0.4810
vn 0.0000 0.8969 0.4423
vn 0.0000 0.9153 0.4027
vn 0.0000 0.9320 0.3624
vn 0.0000 0.9469 0.3214
vn 0.0000 0.9601 0.2798
vn 0.0000 0.9600 0.2798
vn 0.0000 0.9713 0.2377
vn 0.0000 0.9808 0.1951
vn 0.0000 0.9884 0.1521
vn 0.0000 0.9941 0.1089
vn 0.0000 0.9979 0.0654
vn 0.0000 0.9998 0.0218
vn 0.0000 -1.0000 -0.0000
usemtl None.005
s 1
f 1//1 2//1 3//1
f 3//1 4//1 5//1
f 3//1 6//1 7//1
f 8//1 9//1 3//1
f 9//1 10//1 3//1
f 5//1 11//1 3//1
f 11//1 12//1 3//1
f 3//1 12//1 6//1
f 7//1 13//1 3//1
f 13//1 14//1 3//1
f 3//1 14//1 15//1
f 16//1 17//1 3//1
f 17//1 18//1 3//1
f 3//1 18//1 19//1
f 10//1 20//1 3//1
f 20//1 21//1 3//1
f 3//1 21//1 22//1
f 22//1 23//1 3//1
f 23//1 24//1 3//1
f 3//1 24//1 1//1
f 19//1 25//1 3//1
f 25//1 26//1 3//1
f 3//1 26//1 27//1
f 15//1 28//1 3//1
f 28//1 29//1 3//1
f 3//1 29//1 30//1
f 3//1 31//1 32//1
f 27//1 33//1 3//1
f 33//1 34//1 3//1
f 3//1 34//1 4//1
f 30//1 35//1 3//1
f 35//1 36//1 3//1
f 3//1 36//1 31//1
f 32//1 37//1 3//1
f 37//1 38//1 3//1
f 3//1 38//1 8//1
f 39//2 40//2 41//2
f 39//2 41//2 42//2
f 41//2 43//2 44//2
f 44//2 45//2 41//2
f 45//2 46//2 41//2
f 41//2 46//2 47//2
f 47//2 48//2 41//2
f 48//2 49//2 41//2
f 41//2 49//2 50//2
f 40//2 51//2 41//2
f 51//2 52//2 41//2
f 41//2 52//2 53//2
f 54//2 41//2 55//2
f 41//2 56//2 55//2
f 54//2 57//2 41//2
f 57//2 58//2 41//2
f 41//2 58//2 42//2
f 59//2 60//2 41//2
f 60//2 61//2 41//2
f 41//2 61//2 62//2
f 50//2 63//2 41//2
f 63//2 64//2 41//2
f 41//2 64//2 65//2
f 41//2 66//2 67//2
f 53//2 68//2 41//2
f 68//2 69//2 41//2
f 41//2 69//2 70//2
f 70//2 71//2 41//2
f 71//2 72//2 41//2
f 41//2 72//2 59//2
f 65//2 73//2 41//2
f 73//2 74//2 41//2
f 41//2 74//2 66//2
f 67//2 75//2 41//2
f 75//2 76//2 41//2
f 41//2 76//2 56//2
f 43//3 41//3 2//3
f 41//3 3//3 2//3
f 43//4 2//4 44//4
f 2//4 1//4 44//4
f 44//5 1//5 45//5
f 1//5 24//5 45//5
f 45//6 24//6 46//6
f 24//6 23//6 46//6
f 46//7 23//7 47//7
f 23//7 22//7 47//7
f 47//8 22//8 48//8
f 22//8 21//8 48//8
f 48//9 21//9 49//9
f 21//9 20//9 49//9
f 49//10 20//10 50//10
f 20//10 10//10 50//10
f 50//11 10//11 63//11
f 10//11 9//11 63//11
f 63//12 9//12 64//12
f 9//12 8//12 64//12
f 64//13 8//13 65//13
f 8//13 38//13 65//13
f 65//14 38//14 73//14
f 38//14 37//14 73//14
f 73//15 37//15 74//15
f 37//15 32//15 74//15
f 74//16 32//16 66//16
f 32//16 31//16 66//16
f 66//17 31//17 67//17
f 31//17 36//17 67//17
f 67//18 36//18 75//18
f 36//18 35//18 75//18
f 75//19 35//19 76//19
f 35//19 30//19 76//19
f 76//20 30//20 56//20
f 30//20 29//20 56//20
f 56//21 29//21 55//21
f 29//21 28//21 55//21
f 55//22 28//22 54//22
f 28//22 15//22 54//22
f 54//23 15//23 57//23
f 15//23 14//23 57//23
f 57//24 14//24 58//24
f 14//24 13//24 58//24
f 58//25 13//25 42//25
f 13//25 7//25 42//25
f 42//26 7//26 39//26
f 7//26 6//26 39//26
f 39//27 6//27 40//27
f 6//27 12//27 40//27
f 40//28 12//28 51//28
f 12//28 11//28 51//28
f 51//29 11//29 52//29
f 11//29 5//29 52//29
f 52//30 5//30 53//30
f 5//30 4//30 53//30
f 53//31 4//31 68//31
f 4//31 34//31 68//31
f 68//32 34//32 69//32
f 34//32 33//32 69//32
f 69//33 33//34 70//34
f 33//34 27//34 70//34
f 70//35 27//35 71//35
f 27//35 26//35 71//35
f 71//36 26//36 72//36
f 26//36 25//36 72//36
f 72//37 25//37 59//37
f 25//37 19//37 59//37
f 59//38 19//38 60//38
f 19//38 18//38 60//38
f 60//39 18//39 61//39
f 18//39 17//39 61//39
f 61//40 17//40 62//40
f 17//40 16//40 62//40
f 41//41 62//41 3//41
f 62//41 16//41 3//41
